<svg id="visual" viewBox="0 0 900 600" width="900" height="600" xmlns="http://www.w3.org/2000/svg" xmlns:xlink="http://www.w3.org/1999/xlink" version="1.1"><g stroke-width="1" stroke-linejoin="bevel"><path d="M417 274L522 278L438 178Z" fill="#0f2345" stroke="#0f2345"></path><path d="M522 278L473 165L438 178Z" fill="#0f2345" stroke="#0f2345"></path><path d="M522 278L587 166L473 165Z" fill="#0f2345" stroke="#0f2345"></path><path d="M583 276L587 166L522 278Z" fill="#ff0066" stroke="#ff0066"></path><path d="M473 165L369 136L438 178Z" fill="#a32681" stroke="#a32681"></path><path d="M438 178L369 136L417 274Z" fill="#c4197e" stroke="#c4197e"></path><path d="M520 83L369 136L473 165Z" fill="#0f2345" stroke="#0f2345"></path><path d="M279 393L414 383L417 274Z" fill="#041b30" stroke="#041b30"></path><path d="M417 274L414 383L522 278Z" fill="#252a59" stroke="#252a59"></path><path d="M522 278L567 428L583 276Z" fill="#0f2345" stroke="#0f2345"></path><path d="M587 166L520 83L473 165Z" fill="#402f6a" stroke="#402f6a"></path><path d="M414 383L510 432L522 278Z" fill="#ff0066" stroke="#ff0066"></path><path d="M676 116L598 79L587 166Z" fill="#252a59" stroke="#252a59"></path><path d="M587 166L598 79L520 83Z" fill="#0f2345" stroke="#0f2345"></path><path d="M262 201L266 260L417 274Z" fill="#e30574" stroke="#e30574"></path><path d="M369 136L262 201L417 274Z" fill="#802e7f" stroke="#802e7f"></path><path d="M510 432L567 428L522 278Z" fill="#0f2345" stroke="#0f2345"></path><path d="M369 136L269 130L262 201Z" fill="#402f6a" stroke="#402f6a"></path><path d="M317 0L269 130L369 136Z" fill="#402f6a" stroke="#402f6a"></path><path d="M579 0L494 0L520 83Z" fill="#5f3077" stroke="#5f3077"></path><path d="M520 83L374 0L369 136Z" fill="#e30574" stroke="#e30574"></path><path d="M707 190L676 116L587 166Z" fill="#e30574" stroke="#e30574"></path><path d="M598 79L579 0L520 83Z" fill="#a32681" stroke="#a32681"></path><path d="M707 190L587 166L583 276Z" fill="#a32681" stroke="#a32681"></path><path d="M727 264L707 190L583 276Z" fill="#c4197e" stroke="#c4197e"></path><path d="M279 393L418 473L414 383Z" fill="#ff0066" stroke="#ff0066"></path><path d="M414 383L418 473L510 432Z" fill="#e30574" stroke="#e30574"></path><path d="M510 432L608 473L567 428Z" fill="#802e7f" stroke="#802e7f"></path><path d="M269 130L225 210L262 201Z" fill="#a32681" stroke="#a32681"></path><path d="M262 201L225 210L266 260Z" fill="#0f2345" stroke="#0f2345"></path><path d="M266 260L279 393L417 274Z" fill="#041b30" stroke="#041b30"></path><path d="M169 323L279 393L266 260Z" fill="#252a59" stroke="#252a59"></path><path d="M418 473L468 490L510 432Z" fill="#0f2345" stroke="#0f2345"></path><path d="M494 0L374 0L520 83Z" fill="#00101c" stroke="#00101c"></path><path d="M717 390L727 264L583 276Z" fill="#802e7f" stroke="#802e7f"></path><path d="M714 0L579 0L598 79Z" fill="#c4197e" stroke="#c4197e"></path><path d="M269 130L239 112L225 210Z" fill="#802e7f" stroke="#802e7f"></path><path d="M317 0L239 112L269 130Z" fill="#c4197e" stroke="#c4197e"></path><path d="M468 490L608 473L510 432Z" fill="#252a59" stroke="#252a59"></path><path d="M567 428L717 390L583 276Z" fill="#802e7f" stroke="#802e7f"></path><path d="M374 0L317 0L369 136Z" fill="#00101c" stroke="#00101c"></path><path d="M608 473L717 390L567 428Z" fill="#5f3077" stroke="#5f3077"></path><path d="M119 201L169 323L225 210Z" fill="#0f2345" stroke="#0f2345"></path><path d="M225 210L169 323L266 260Z" fill="#0f2345" stroke="#0f2345"></path><path d="M279 393L271 492L418 473Z" fill="#c4197e" stroke="#c4197e"></path><path d="M418 473L423 600L468 490Z" fill="#041b30" stroke="#041b30"></path><path d="M195 424L271 492L279 393Z" fill="#252a59" stroke="#252a59"></path><path d="M717 390L785 338L727 264Z" fill="#00101c" stroke="#00101c"></path><path d="M821 204L794 100L707 190Z" fill="#802e7f" stroke="#802e7f"></path><path d="M794 100L714 0L676 116Z" fill="#402f6a" stroke="#402f6a"></path><path d="M169 323L195 424L279 393Z" fill="#5f3077" stroke="#5f3077"></path><path d="M794 100L676 116L707 190Z" fill="#e30574" stroke="#e30574"></path><path d="M676 116L714 0L598 79Z" fill="#252a59" stroke="#252a59"></path><path d="M317 0L228 0L239 112Z" fill="#00101c" stroke="#00101c"></path><path d="M239 112L119 201L225 210Z" fill="#e30574" stroke="#e30574"></path><path d="M821 204L707 190L727 264Z" fill="#041b30" stroke="#041b30"></path><path d="M785 338L821 204L727 264Z" fill="#252a59" stroke="#252a59"></path><path d="M88 115L119 201L239 112Z" fill="#00101c" stroke="#00101c"></path><path d="M169 323L117 361L195 424Z" fill="#c4197e" stroke="#c4197e"></path><path d="M717 390L800 438L785 338Z" fill="#00101c" stroke="#00101c"></path><path d="M608 473L730 491L717 390Z" fill="#041b30" stroke="#041b30"></path><path d="M639 600L730 491L608 473Z" fill="#e30574" stroke="#e30574"></path><path d="M524 600L608 473L468 490Z" fill="#802e7f" stroke="#802e7f"></path><path d="M305 600L423 600L418 473Z" fill="#802e7f" stroke="#802e7f"></path><path d="M423 600L524 600L468 490Z" fill="#0f2345" stroke="#0f2345"></path><path d="M83 292L117 361L169 323Z" fill="#5f3077" stroke="#5f3077"></path><path d="M195 424L186 515L271 492Z" fill="#5f3077" stroke="#5f3077"></path><path d="M794 100L765 0L714 0Z" fill="#5f3077" stroke="#5f3077"></path><path d="M730 491L800 438L717 390Z" fill="#5f3077" stroke="#5f3077"></path><path d="M900 333L900 181L821 204Z" fill="#402f6a" stroke="#402f6a"></path><path d="M119 201L83 292L169 323Z" fill="#402f6a" stroke="#402f6a"></path><path d="M271 492L305 600L418 473Z" fill="#5f3077" stroke="#5f3077"></path><path d="M63 479L186 515L195 424Z" fill="#402f6a" stroke="#402f6a"></path><path d="M187 600L186 515L80 600Z" fill="#5f3077" stroke="#5f3077"></path><path d="M187 600L305 600L271 492Z" fill="#5f3077" stroke="#5f3077"></path><path d="M524 600L639 600L608 473Z" fill="#0f2345" stroke="#0f2345"></path><path d="M730 491L810 532L800 438Z" fill="#ff0066" stroke="#ff0066"></path><path d="M125 0L88 115L239 112Z" fill="#402f6a" stroke="#402f6a"></path><path d="M119 201L0 222L83 292Z" fill="#ff0066" stroke="#ff0066"></path><path d="M228 0L125 0L239 112Z" fill="#252a59" stroke="#252a59"></path><path d="M900 333L821 204L785 338Z" fill="#00101c" stroke="#00101c"></path><path d="M821 204L900 181L794 100Z" fill="#5f3077" stroke="#5f3077"></path><path d="M794 100L900 0L765 0Z" fill="#802e7f" stroke="#802e7f"></path><path d="M800 438L900 333L785 338Z" fill="#c4197e" stroke="#c4197e"></path><path d="M900 181L900 99L794 100Z" fill="#252a59" stroke="#252a59"></path><path d="M737 600L810 532L730 491Z" fill="#252a59" stroke="#252a59"></path><path d="M800 438L900 438L900 333Z" fill="#041b30" stroke="#041b30"></path><path d="M639 600L737 600L730 491Z" fill="#c4197e" stroke="#c4197e"></path><path d="M63 479L195 424L117 361Z" fill="#e30574" stroke="#e30574"></path><path d="M186 515L187 600L271 492Z" fill="#c4197e" stroke="#c4197e"></path><path d="M0 132L119 201L88 115Z" fill="#e30574" stroke="#e30574"></path><path d="M0 132L0 222L119 201Z" fill="#ff0066" stroke="#ff0066"></path><path d="M83 292L0 432L117 361Z" fill="#ff0066" stroke="#ff0066"></path><path d="M0 222L0 267L83 292Z" fill="#0f2345" stroke="#0f2345"></path><path d="M900 488L900 438L800 438Z" fill="#802e7f" stroke="#802e7f"></path><path d="M0 432L63 479L117 361Z" fill="#00101c" stroke="#00101c"></path><path d="M737 600L779 600L810 532Z" fill="#ff0066" stroke="#ff0066"></path><path d="M810 532L900 488L800 438Z" fill="#c4197e" stroke="#c4197e"></path><path d="M0 0L0 132L88 115Z" fill="#252a59" stroke="#252a59"></path><path d="M900 99L900 0L794 100Z" fill="#402f6a" stroke="#402f6a"></path><path d="M900 600L900 488L810 532Z" fill="#402f6a" stroke="#402f6a"></path><path d="M0 267L0 432L83 292Z" fill="#041b30" stroke="#041b30"></path><path d="M63 479L80 600L186 515Z" fill="#041b30" stroke="#041b30"></path><path d="M125 0L0 0L88 115Z" fill="#c4197e" stroke="#c4197e"></path><path d="M0 536L80 600L63 479Z" fill="#ff0066" stroke="#ff0066"></path><path d="M0 432L0 536L63 479Z" fill="#402f6a" stroke="#402f6a"></path><path d="M779 600L900 600L810 532Z" fill="#802e7f" stroke="#802e7f"></path><path d="M0 536L0 600L80 600Z" fill="#0f2345" stroke="#0f2345"></path></g></svg>